<?xml version="1.0" encoding="utf-8"?>
<!-- Generator: Adobe Illustrator 21.0.2, SVG Export Plug-In . SVG Version: 6.00 Build 0)  -->
<svg version="1.1" id="Layer_1" xmlns="http://www.w3.org/2000/svg" xmlns:xlink="http://www.w3.org/1999/xlink" x="0px" y="0px"
	 viewBox="0 0 1366 768" style="enable-background:new 0 0 1366 768;" xml:space="preserve">
<style type="text/css">
	.st0{fill:none;stroke:#C5007B;stroke-width:2.8941;stroke-linecap:round;stroke-linejoin:round;stroke-miterlimit:10;}
	.st1{fill:none;stroke:#FFFFFF;stroke-width:2.8941;stroke-linecap:round;stroke-linejoin:round;stroke-miterlimit:10;}
	.st2{fill:none;stroke:#FFFFFF;stroke-width:1.6577;stroke-linecap:round;stroke-linejoin:round;stroke-miterlimit:10;}
	.st3{fill:none;stroke:#C5007B;stroke-width:1.6577;stroke-linecap:round;stroke-linejoin:round;stroke-miterlimit:10;}
</style>
<g>
	<path class="st0" d="M113.1,603.9l71.5-35.8 M298.1,603.9l-69.9-35 M205.6,535.7v-71.4 M113.1,510.6v93.4 M205.6,556.8v93.4
		 M298.1,510.6v93.4 M298.1,603.9l-92.5,46.2l-92.5-46.2 M205.6,556.8l-92.5-46.2l92.5-46.2l92.5,46.2L205.6,556.8z"/>
	<path class="st0" d="M113.1,417.9l71.5-35.8 M298.1,417.9l-69.9-35 M205.6,349.6v-71.4 M113.1,324.5v93.4 M205.6,370.7v93.4
		 M298.1,324.5v93.4 M298.1,417.9l-92.5,46.2l-92.5-46.2 M205.6,370.7l-92.5-46.2l92.5-46.2l92.5,46.2L205.6,370.7z"/>
	<path class="st1" d="M205.8,510.6l71.5-35.8 M390.8,510.6l-69.9-35 M298.3,442.3V371 M205.8,417.2v93.4 M298.3,463.4v93.4
		 M390.8,417.2v93.4 M390.8,510.6l-92.5,46.2l-92.5-46.2 M298.3,463.4l-92.5-46.2l92.5-46.2l92.5,46.2L298.3,463.4z"/>
</g>
<g>
	<path class="st2" d="M1017.2,343.9l61.5-30.7 M1176.1,343.9l-60.1-30 M1096.7,285.3V224 M1017.2,263.7v80.2 M1096.7,303.4v80.2
		 M1176.1,263.7v80.2 M1176.1,343.9l-79.4,39.7l-79.4-39.7 M1096.7,303.4l-79.4-39.7l79.4-39.7l79.4,39.7L1096.7,303.4z"/>
	<path class="st2" d="M1096.9,423.6l61.5-30.7 M1255.8,423.6l-60.1-30 M1176.3,365v-61.3 M1096.9,343.4v80.2 M1176.3,383.1v80.2
		 M1255.8,343.4v80.2 M1255.8,423.6l-79.4,39.7l-79.4-39.7 M1176.3,383.1l-79.4-39.7l79.4-39.7l79.4,39.7L1176.3,383.1z"/>
	<path class="st2" d="M1017.2,184.1l61.5-30.7 M1176.1,184.1l-60.1-30 M1096.7,125.5V64.2 M1017.2,103.9v80.2 M1096.7,143.6v80.2
		 M1176.1,103.9v80.2 M1176.1,184.1l-79.4,39.7l-79.4-39.7 M1096.7,143.6l-79.4-39.7l79.4-39.7l79.4,39.7L1096.7,143.6z"/>
	<path class="st3" d="M1096.9,263.7l61.5-30.7 M1255.8,263.7l-60.1-30 M1176.3,205.1v-61.3 M1096.9,183.5v80.2 M1176.3,223.2v80.2
		 M1255.8,183.5v80.2 M1255.8,263.7l-79.4,39.7l-79.4-39.7 M1176.3,223.2l-79.4-39.7l79.4-39.7l79.4,39.7L1176.3,223.2z"/>
</g>
</svg>
